<?xml version="1.0" encoding="utf-8"?>
<!-- Generator: Adobe Illustrator 16.0.4, SVG Export Plug-In . SVG Version: 6.00 Build 0)  -->
<!DOCTYPE svg PUBLIC "-//W3C//DTD SVG 1.1//EN" "http://www.w3.org/Graphics/SVG/1.1/DTD/svg11.dtd">
<svg version="1.1" id="Warstwa_1" xmlns="http://www.w3.org/2000/svg" xmlns:xlink="http://www.w3.org/1999/xlink" x="0px" y="0px"
	 width="150px" height="100px" viewBox="0 0 150 100" enable-background="new 0 0 0 0" xml:space="preserve">
<g>
	<path fill="#FFFFFF" d="M83.198,59.08H65.615c-0.332,0-0.601-0.27-0.601-0.601V43.208c0-0.332,0.269-0.601,0.601-0.601h2.646
		c0.333,0,0.601,0.269,0.601,0.601c0,0.333-0.269,0.601-0.601,0.601h-2.044v14.068h16.381V45.119c0-0.332,0.269-0.601,0.601-0.601
		c0.333,0,0.602,0.269,0.602,0.601v13.359C83.8,58.811,83.53,59.08,83.198,59.08L83.198,59.08z"/>
	<path fill="#FFFFFF" d="M83.198,43.81h-2.439c-0.332,0-0.602-0.269-0.602-0.601c0-0.332,0.27-0.601,0.602-0.601h2.439
		c0.333,0,0.602,0.269,0.602,0.601C83.8,43.541,83.53,43.81,83.198,43.81L83.198,43.81z"/>
	<path fill="#FFFFFF" d="M77.045,43.81h-5.25c-0.333,0-0.601-0.269-0.601-0.601c0-0.332,0.269-0.601,0.601-0.601h5.25
		c0.332,0,0.601,0.269,0.601,0.601C77.646,43.541,77.377,43.81,77.045,43.81L77.045,43.81z"/>
	<path fill="#FFFFFF" d="M70.033,57.19c-0.332,0-0.602-0.269-0.602-0.601v-9.517c0-0.333,0.27-0.601,0.602-0.601
		c0.332,0,0.601,0.269,0.601,0.601v9.517C70.634,56.921,70.365,57.19,70.033,57.19L70.033,57.19z"/>
	<path fill="#FFFFFF" d="M74.466,57.19c-0.332,0-0.601-0.269-0.601-0.601v-9.517c0-0.333,0.27-0.601,0.601-0.601
		c0.332,0,0.602,0.269,0.602,0.601v9.517C75.067,56.921,74.798,57.19,74.466,57.19L74.466,57.19z"/>
	<path fill="#FFFFFF" d="M78.9,57.19c-0.332,0-0.601-0.269-0.601-0.601v-9.517c0-0.333,0.269-0.601,0.601-0.601
		s0.601,0.269,0.601,0.601v9.517C79.501,56.921,79.232,57.19,78.9,57.19L78.9,57.19z"/>
	<path fill="#FFFFFF" d="M81.572,47.485H67.429c-0.333,0-0.602-0.269-0.602-0.601c0-0.332,0.27-0.601,0.602-0.601h14.144
		c0.332,0,0.601,0.269,0.601,0.601C82.173,47.217,81.903,47.485,81.572,47.485L81.572,47.485z"/>
	<path fill="#FFFFFF" d="M81.572,51.336H67.429c-0.333,0-0.602-0.27-0.602-0.602s0.27-0.601,0.602-0.601h14.144
		c0.332,0,0.601,0.269,0.601,0.601S81.903,51.336,81.572,51.336L81.572,51.336z"/>
	<path fill="#FFFFFF" d="M81.572,55.066H67.429c-0.333,0-0.602-0.269-0.602-0.601s0.27-0.601,0.602-0.601h14.144
		c0.332,0,0.601,0.269,0.601,0.601S81.903,55.066,81.572,55.066L81.572,55.066z"/>
	<path fill="#FFFFFF" d="M70.033,45.183c-0.332,0-0.602-0.269-0.602-0.601v-2.9c0-0.333,0.27-0.601,0.602-0.601
		c0.332,0,0.601,0.269,0.601,0.601v2.9C70.634,44.914,70.365,45.183,70.033,45.183L70.033,45.183z"/>
	<path fill="#FFFFFF" d="M78.9,45.183c-0.332,0-0.601-0.269-0.601-0.601v-2.9c0-0.333,0.269-0.601,0.601-0.601
		s0.601,0.269,0.601,0.601v2.9C79.501,44.914,79.232,45.183,78.9,45.183L78.9,45.183z"/>
</g>
</svg>
