<?xml version="1.0" encoding="utf-8"?>
<!-- Generator: Adobe Illustrator 16.0.4, SVG Export Plug-In . SVG Version: 6.00 Build 0)  -->
<!DOCTYPE svg PUBLIC "-//W3C//DTD SVG 1.1//EN" "http://www.w3.org/Graphics/SVG/1.1/DTD/svg11.dtd">
<svg version="1.1" id="Warstwa_1" xmlns="http://www.w3.org/2000/svg" xmlns:xlink="http://www.w3.org/1999/xlink" x="0px" y="0px"
	 width="150px" height="100px" viewBox="0 0 150 100" enable-background="new 0 0 150 100" xml:space="preserve">
<g>
	<path fill="#FFFFFF" d="M41.133,62.742v0.465c0,0.834,0.439,1.25,1.319,1.25c0.91,0,1.843-0.393,2.798-1.178V61.59h-3.026
		C41.497,61.607,41.133,61.99,41.133,62.742L41.133,62.742z"/>
	<path fill="#FFFFFF" d="M28.296,57.838c-0.28,0.457-0.42,1.414-0.42,2.869c0,1.389,0.136,2.316,0.41,2.781
		c0.273,0.467,0.758,0.699,1.456,0.699c0.47,0,0.872-0.068,1.206-0.207c0.333-0.139,0.766-0.396,1.296-0.773v-5.59
		c-1.016-0.309-1.813-0.465-2.389-0.465C29.096,57.152,28.577,57.381,28.296,57.838L28.296,57.838z"/>
	<path fill="#FFFFFF" d="M65.568,41.208c0.145-0.212,0.216-0.523,0.216-0.932c0-0.571-0.136-0.968-0.41-1.189
		c-0.272-0.22-0.773-0.33-1.501-0.33c-0.864,0-1.456,0.184-1.775,0.551c-0.318,0.368-0.5,1.108-0.545,2.22h3.185
		C65.147,41.527,65.424,41.421,65.568,41.208L65.568,41.208z"/>
	<path fill="#FFFFFF" d="M97.909,46.135c0.863,0,1.453-0.245,1.764-0.734c0.311-0.491,0.467-1.455,0.467-2.894
		c0-1.455-0.152-2.431-0.455-2.93c-0.305-0.499-0.895-0.748-1.775-0.748c-0.895,0-1.494,0.245-1.797,0.735
		c-0.305,0.491-0.455,1.472-0.455,2.942c0,1.438,0.15,2.402,0.455,2.894C96.415,45.89,97.015,46.135,97.909,46.135L97.909,46.135z"
		/>
	<path fill="#FFFFFF" d="M133.604,18.08H16.383c-2.96,0-5.369,2.509-5.369,5.592v53.261c0,3.084,2.409,5.592,5.369,5.592h117.221
		c2.959,0,5.367-2.508,5.367-5.592V23.672C138.972,20.589,136.563,18.08,133.604,18.08L133.604,18.08z M105.964,36.452h2.615
		l0.295,1.765c1.531-1.405,3.049-2.108,4.551-2.108h0.592l-0.34,3.359h-0.912c-0.742,0-1.889,0.277-3.434,0.833v8.238h-3.367V36.452
		L105.964,36.452z M93.438,37.555c0.873-0.965,2.361-1.447,4.471-1.447c2.094,0,3.576,0.487,4.447,1.459
		c0.873,0.972,1.309,2.619,1.309,4.939s-0.436,3.959-1.309,4.915c-0.871,0.956-2.354,1.435-4.447,1.435
		c-2.109,0-3.598-0.479-4.471-1.435s-1.309-2.594-1.309-4.915C92.13,40.169,92.565,38.519,93.438,37.555L93.438,37.555z
		 M82.302,36.574l1.98-0.122v-3.384h3.344v3.384h3.117v2.427h-3.117v5.711c0,0.458,0.09,0.776,0.273,0.957
		c0.182,0.181,0.5,0.271,0.955,0.271h1.434l0.363,2.525c-0.865,0.327-1.92,0.491-3.162,0.491c-1.016,0-1.805-0.308-2.367-0.92
		c-0.561-0.612-0.84-1.466-0.84-2.561v-6.473h-1.98V36.574L82.302,36.574z M71.802,36.893c0.721-0.523,1.953-0.785,3.697-0.785
		c2.018,0.033,3.746,0.188,5.188,0.466l-0.227,2.329c-1.912-0.032-3.354-0.048-4.324-0.048c-0.531,0-0.898,0.004-1.104,0.012
		c-0.204,0.008-0.409,0.036-0.614,0.086c-0.204,0.048-0.33,0.126-0.375,0.233c-0.046,0.106-0.068,0.266-0.068,0.478
		c0,0.082,0.003,0.155,0.012,0.221c0.007,0.064,0.025,0.126,0.057,0.184c0.03,0.058,0.057,0.102,0.079,0.133
		c0.023,0.034,0.064,0.07,0.125,0.112c0.06,0.041,0.11,0.07,0.148,0.086c0.037,0.016,0.106,0.044,0.205,0.085
		c0.098,0.041,0.173,0.07,0.228,0.085c0.053,0.017,0.151,0.044,0.295,0.086c0.145,0.041,0.254,0.07,0.33,0.086l2.865,0.833
		c1.002,0.311,1.715,0.724,2.141,1.238c0.424,0.515,0.637,1.279,0.637,2.292c0,1.438-0.387,2.415-1.162,2.929
		c-0.771,0.515-2.1,0.772-3.98,0.772c-1.82,0-3.496-0.138-5.028-0.416l0.206-2.354c0.546,0.034,1.843,0.049,3.891,0.049
		c1.166,0,1.93-0.054,2.285-0.16c0.357-0.106,0.535-0.354,0.535-0.748c0-0.082-0.004-0.155-0.012-0.22
		c-0.008-0.065-0.027-0.127-0.057-0.185c-0.031-0.056-0.061-0.102-0.092-0.134c-0.029-0.032-0.078-0.069-0.148-0.11
		c-0.066-0.042-0.121-0.073-0.16-0.099c-0.035-0.024-0.107-0.056-0.215-0.098c-0.105-0.041-0.189-0.068-0.25-0.085
		c-0.061-0.017-0.168-0.045-0.318-0.086c-0.152-0.041-0.266-0.077-0.342-0.11l-2.798-0.809c-1.031-0.327-1.744-0.772-2.139-1.336
		c-0.394-0.563-0.591-1.344-0.591-2.342C70.721,38.306,71.082,37.416,71.802,36.893L71.802,36.893z M25.965,32.162
		c0-0.703,0.326-1.054,0.978-1.054h1.501c0.652,0,0.979,0.351,0.979,1.054v1.323c0,0.704-0.326,1.055-0.979,1.055h-1.501
		c-0.652,0-0.978-0.352-0.978-1.055V32.162L25.965,32.162z M25.373,36.452c0-0.379,0.286-0.687,0.638-0.687h3.367
		c0.352,0,0.637,0.307,0.637,0.687v5.615c0,0.378-0.286,0.687-0.637,0.687h-0.159l-0.146,5.784h-2.61l-0.205-5.784h-0.246
		c-0.352,0-0.638-0.308-0.638-0.687V36.452L25.373,36.452z M35.611,66.885H32.95l-0.273-1.766c-1.077,1.373-2.502,2.059-4.277,2.059
		c-1.396,0-2.409-0.541-3.038-1.631c-0.63-1.084-0.944-2.691-0.944-4.816c0-2.32,0.349-3.947,1.046-4.877
		c0.698-0.932,1.783-1.398,3.253-1.398c1.441,0,2.654,0.359,3.641,1.078c-0.076-0.898-0.114-1.74-0.114-2.525v-3.284h3.367V66.885
		L35.611,66.885z M35.662,48.538h-3.368V36.452h2.73l0.251,1.79c1.622-1.422,3.222-2.133,4.8-2.133c1.017,0,1.794,0.286,2.333,0.858
		c0.538,0.572,0.807,1.405,0.807,2.5v9.07H39.87v-7.943c0-0.539-0.08-0.912-0.239-1.116c-0.159-0.204-0.443-0.307-0.854-0.307
		c-0.712,0-1.751,0.369-3.116,1.103V48.538L35.662,48.538z M48.619,66.885h-2.662l-0.341-1.84c-1.123,1.422-2.503,2.133-4.141,2.133
		c-1.077,0-1.957-0.305-2.639-0.92c-0.682-0.611-1.024-1.465-1.024-2.561v-1.225c0-0.967,0.303-1.717,0.91-2.258
		c0.606-0.537,1.448-0.809,2.525-0.809h4.004v-0.537c-0.015-0.621-0.148-1.039-0.398-1.252c-0.25-0.213-0.732-0.318-1.445-0.318
		c-1.244,0-2.821,0.064-4.732,0.195l-0.319-2.451c2.018-0.393,3.967-0.588,5.848-0.588c1.517,0,2.631,0.33,3.344,0.992
		c0.712,0.662,1.07,1.811,1.07,3.445V66.885L48.619,66.885z M48.379,47.68l-3.685-11.228h3.571l2.025,7.576
		c0.167,0.67,0.326,1.389,0.479,2.157h0.295l0.523-2.157l2.024-7.576h3.549L53.476,47.68c-0.183,0.572-0.546,0.858-1.093,0.858
		h-2.912C48.926,48.538,48.561,48.252,48.379,47.68L48.379,47.68z M58.139,67.057c-0.213,0.652-0.475,1.258-0.785,1.814
		c-0.312,0.555-0.709,1.09-1.194,1.604c-0.486,0.516-1.089,0.896-1.809,1.141c-0.721,0.246-1.521,0.311-2.4,0.197l-0.273-2.133
		c0.91-0.262,1.623-0.602,2.139-1.018s0.918-0.977,1.206-1.68l0.046-0.098H54.43c-0.561,0-0.925-0.295-1.092-0.881l-3.663-11.205
		h3.595l2.093,7.82c0.137,0.572,0.25,1.178,0.341,1.812H56c0.045-0.193,0.121-0.502,0.227-0.918
		c0.106-0.418,0.182-0.715,0.227-0.895l2.071-7.82h3.595L58.139,67.057L58.139,67.057z M59.391,47.36
		c-0.896-0.98-1.342-2.598-1.342-4.854c0-2.368,0.436-4.029,1.308-4.977c0.872-0.948,2.34-1.422,4.402-1.422
		c1.866,0,3.216,0.348,4.05,1.043c0.834,0.694,1.259,1.751,1.274,3.174c0,1.127-0.27,1.974-0.808,2.537
		c-0.539,0.564-1.407,0.846-2.605,0.846h-4.05c0.106,0.882,0.353,1.474,0.739,1.777c0.388,0.302,1.028,0.453,1.923,0.453
		c1.198,0,2.594-0.089,4.186-0.27l0.319,2.255c-1.168,0.605-2.799,0.909-4.892,0.909C61.788,48.833,60.286,48.342,59.391,47.36
		L59.391,47.36z M125.46,66.336H66.625v-3.002h58.834V66.336L125.46,66.336z M124.3,48.035c-0.773,0.515-2.1,0.772-3.982,0.772
		c-1.818,0-3.494-0.138-5.027-0.416l0.207-2.354c0.545,0.034,1.842,0.049,3.889,0.049c1.168,0,1.93-0.054,2.287-0.16
		c0.355-0.106,0.535-0.354,0.535-0.748c0-0.082-0.006-0.155-0.014-0.22c-0.006-0.065-0.025-0.127-0.055-0.185
		c-0.031-0.056-0.062-0.102-0.092-0.134c-0.031-0.032-0.08-0.069-0.148-0.11c-0.068-0.042-0.121-0.073-0.158-0.099
		c-0.039-0.024-0.111-0.056-0.217-0.098c-0.105-0.041-0.189-0.068-0.25-0.085c-0.061-0.017-0.168-0.045-0.318-0.086
		c-0.152-0.041-0.266-0.077-0.342-0.11l-2.799-0.809c-1.031-0.327-1.744-0.772-2.139-1.336c-0.395-0.563-0.59-1.344-0.59-2.342
		c0-1.258,0.357-2.149,1.08-2.671c0.721-0.523,1.951-0.785,3.697-0.785c2.018,0.033,3.746,0.188,5.188,0.466l-0.229,2.329
		c-1.91-0.032-3.352-0.048-4.322-0.048c-0.531,0-0.898,0.004-1.104,0.012s-0.41,0.036-0.615,0.086
		c-0.205,0.048-0.33,0.126-0.375,0.233c-0.045,0.106-0.068,0.266-0.068,0.478c0,0.082,0.004,0.155,0.012,0.221
		c0.008,0.064,0.027,0.126,0.057,0.184c0.031,0.058,0.059,0.102,0.078,0.133c0.025,0.034,0.066,0.07,0.125,0.112
		c0.062,0.041,0.111,0.07,0.15,0.086c0.037,0.016,0.105,0.044,0.205,0.085c0.098,0.041,0.172,0.07,0.227,0.085
		c0.055,0.017,0.152,0.044,0.295,0.086c0.145,0.041,0.254,0.07,0.332,0.086l2.865,0.833c1.002,0.311,1.715,0.724,2.139,1.238
		c0.426,0.515,0.637,1.279,0.637,2.292C125.46,46.543,125.073,47.52,124.3,48.035L124.3,48.035z"/>
</g>
</svg>
