<?xml version="1.0" encoding="utf-8"?>
<!-- Generator: Adobe Illustrator 16.0.4, SVG Export Plug-In . SVG Version: 6.00 Build 0)  -->
<!DOCTYPE svg PUBLIC "-//W3C//DTD SVG 1.1//EN" "http://www.w3.org/Graphics/SVG/1.1/DTD/svg11.dtd">
<svg version="1.1" id="Warstwa_1" xmlns="http://www.w3.org/2000/svg" xmlns:xlink="http://www.w3.org/1999/xlink" x="0px" y="0px"
	 width="150px" height="100px" viewBox="0 0 150 100" enable-background="new 0 0 150 100" xml:space="preserve">
<g>
	<path fill="#FFFFFF" d="M69.957,59.963c1.273,0,2.486,0.258,3.59,0.725"/>
	<path fill="#FFFFFF" d="M33.793,76.946c-1.698,0-3.075-1.376-3.075-3.074v-4.686c0-6.781,5.517-12.299,12.298-12.299
		c1.698,0,3.075,1.377,3.075,3.075s-1.376,3.074-3.075,3.074c-3.391,0-6.149,2.759-6.149,6.149v4.686
		C36.867,75.57,35.491,76.946,33.793,76.946L33.793,76.946z"/>
	<path fill="#FFFFFF" d="M73.546,63.764c-0.399,0-0.805-0.079-1.196-0.244c-0.757-0.32-1.562-0.482-2.393-0.482
		c-1.698,0-3.075-1.376-3.075-3.074s1.376-3.075,3.075-3.075c1.658,0,3.27,0.326,4.788,0.968c1.563,0.662,2.296,2.466,1.634,4.03
		C75.883,63.059,74.744,63.764,73.546,63.764L73.546,63.764z"/>
	<path fill="#FFFFFF" d="M56.121,56.888c-9.486,0-17.204-7.716-17.204-17.203c0-9.486,7.718-17.204,17.204-17.204
		s17.203,7.718,17.203,17.204C73.324,49.171,65.607,56.888,56.121,56.888L56.121,56.888z M56.121,28.631
		c-6.096,0-11.055,4.959-11.055,11.054s4.959,11.054,11.055,11.054c6.095,0,11.054-4.959,11.054-11.054S62.216,28.631,56.121,28.631
		L56.121,28.631z"/>
	<path fill="#FFFFFF" d="M127.664,79.347c-1.697,0-3.074-1.376-3.074-3.074v-5.151c0-3.896-3.17-7.065-7.065-7.065
		c-1.698,0-3.074-1.376-3.074-3.074s1.376-3.075,3.074-3.075c7.287,0,13.215,5.929,13.215,13.215v5.151
		C130.739,77.971,129.362,79.347,127.664,79.347L127.664,79.347z"/>
	<path fill="#FFFFFF" d="M77.769,79.347c-1.698,0-3.075-1.376-3.075-3.074v-5.151c0-7.286,5.927-13.215,13.214-13.215
		c1.698,0,3.074,1.377,3.074,3.075s-1.376,3.074-3.074,3.074c-3.896,0-7.065,3.17-7.065,7.065v5.151
		C80.843,77.971,79.467,79.347,77.769,79.347L77.769,79.347z"/>
	<path fill="#FFFFFF" d="M102.314,57.295c-10.261,0-18.607-8.346-18.607-18.606c0-10.26,8.347-18.607,18.607-18.607
		c10.259,0,18.606,8.347,18.606,18.607C120.921,48.949,112.573,57.295,102.314,57.295L102.314,57.295z M102.314,26.231
		c-6.87,0-12.459,5.589-12.459,12.458c0,6.869,5.589,12.457,12.459,12.457c6.869,0,12.457-5.588,12.457-12.457
		C114.771,31.82,109.184,26.231,102.314,26.231L102.314,26.231z"/>
	<path fill="#FFFFFF" d="M77.329,80.168h-55.24c-1.698,0-3.075-1.377-3.075-3.075s1.376-3.074,3.075-3.074h55.24
		c1.698,0,3.075,1.376,3.075,3.074S79.027,80.168,77.329,80.168L77.329,80.168z"/>
</g>
</svg>
