<?xml version="1.0" encoding="utf-8"?>
<!-- Generator: Adobe Illustrator 16.0.4, SVG Export Plug-In . SVG Version: 6.00 Build 0)  -->
<!DOCTYPE svg PUBLIC "-//W3C//DTD SVG 1.1//EN" "http://www.w3.org/Graphics/SVG/1.1/DTD/svg11.dtd">
<svg version="1.1" id="Warstwa_1" xmlns="http://www.w3.org/2000/svg" xmlns:xlink="http://www.w3.org/1999/xlink" x="0px" y="0px"
	 width="150px" height="100px" viewBox="0 0 150 100" enable-background="new 0 0 150 100" xml:space="preserve">
<g>
	<path fill="#FFFFFF" d="M113.294,75.22H37.037c-3.114,0-5.648-2.418-5.648-5.391V21.47c0-2.972,2.534-5.39,5.648-5.39h76.257
		c3.115,0,5.648,2.418,5.648,5.39v48.359C118.942,72.802,116.409,75.22,113.294,75.22L113.294,75.22z M37.364,69.517h75.604V21.782
		H37.364V69.517L37.364,69.517z"/>
	<path fill="#FFFFFF" d="M125.329,85.17H25.002c-1.65,0-2.988-1.276-2.988-2.852c0-1.574,1.337-2.851,2.988-2.851h100.327
		c1.65,0,2.986,1.276,2.986,2.851C128.315,83.894,126.979,85.17,125.329,85.17L125.329,85.17z"/>
	<path fill="#FFFFFF" d="M86.819,54.354c4.408,0,7.98,3.409,7.98,7.616v3.869"/>
	<path fill="#FFFFFF" d="M94.8,68.69c-1.65,0-2.986-1.276-2.986-2.851v-3.869c0-2.627-2.24-4.765-4.994-4.765
		c-1.65,0-2.986-1.276-2.986-2.852s1.336-2.852,2.986-2.852c6.049,0,10.969,4.696,10.969,10.468v3.869
		C97.788,67.414,96.45,68.69,94.8,68.69L94.8,68.69z"/>
	<path fill="#FFFFFF" d="M55.531,65.84v-3.869c0-4.207,3.573-7.616,7.98-7.616"/>
	<path fill="#FFFFFF" d="M55.531,68.69c-1.65,0-2.987-1.276-2.987-2.851v-3.869c0-5.771,4.92-10.468,10.968-10.468
		c1.65,0,2.987,1.276,2.987,2.852s-1.337,2.852-2.987,2.852c-2.753,0-4.993,2.138-4.993,4.765v3.869
		C58.518,67.414,57.181,68.69,55.531,68.69L55.531,68.69z"/>
	<path fill="#FFFFFF" d="M74.849,52.128c-8.389,0-15.212-6.513-15.212-14.518s6.824-14.518,15.212-14.518
		c8.388,0,15.21,6.513,15.21,14.518S83.237,52.128,74.849,52.128L74.849,52.128z M74.849,28.794c-5.094,0-9.237,3.955-9.237,8.816
		c0,4.861,4.144,8.815,9.237,8.815c5.093,0,9.236-3.955,9.236-8.815C84.085,32.749,79.942,28.794,74.849,28.794L74.849,28.794z"/>
</g>
</svg>
